<?xml version="1.0" encoding="UTF-8" standalone="no"?>
<!-- Created with Inkscape (http://www.inkscape.org/) -->

<svg
   width="100mm"
   height="100mm"
   viewBox="0 0 100 100"
   version="1.1"
   id="svg5"
   xml:space="preserve"
   inkscape:version="1.2.2 (b0a8486541, 2022-12-01)"
   sodipodi:docname="share.svg"
   inkscape:export-filename="share.png"
   inkscape:export-xdpi="300"
   inkscape:export-ydpi="300"
   xmlns:inkscape="http://www.inkscape.org/namespaces/inkscape"
   xmlns:sodipodi="http://sodipodi.sourceforge.net/DTD/sodipodi-0.dtd"
   xmlns:xlink="http://www.w3.org/1999/xlink"
   xmlns="http://www.w3.org/2000/svg"
   xmlns:svg="http://www.w3.org/2000/svg"><sodipodi:namedview
     id="namedview7"
     pagecolor="#000000"
     bordercolor="#666666"
     borderopacity="1.0"
     inkscape:showpageshadow="2"
     inkscape:pageopacity="0"
     inkscape:pagecheckerboard="0"
     inkscape:deskcolor="#d1d1d1"
     inkscape:document-units="mm"
     showgrid="false"
     inkscape:zoom="1.4142136"
     inkscape:cx="118.44039"
     inkscape:cy="227.68838"
     inkscape:window-width="1910"
     inkscape:window-height="1025"
     inkscape:window-x="0"
     inkscape:window-y="26"
     inkscape:window-maximized="1"
     inkscape:current-layer="layer1" /><defs
     id="defs2"><rect
       x="290.71234"
       y="41.144833"
       width="61.573731"
       height="13.471043"
       id="rect4251" /><marker
       style="overflow:visible"
       id="Dot"
       refX="0"
       refY="0"
       orient="auto"
       inkscape:stockid="Dot"
       markerWidth="5.6666665"
       markerHeight="5.6666665"
       viewBox="0 0 5.6666667 5.6666667"
       inkscape:isstock="true"
       inkscape:collect="always"
       preserveAspectRatio="xMidYMid"><path
         transform="scale(0.5)"
         style="fill:context-stroke;fill-rule:evenodd;stroke:context-stroke;stroke-width:1pt"
         d="M 5,0 C 5,2.76 2.76,5 0,5 -2.76,5 -5,2.76 -5,0 c 0,-2.76 2.3,-5 5,-5 2.76,0 5,2.24 5,5 z"
         id="Dot1"
         sodipodi:nodetypes="sssss" /></marker><pattern
       inkscape:collect="always"
       xlink:href="#Checkerboardwhite"
       id="pattern3727"
       patternTransform="matrix(0.88393976,-0.53104248,0.53104259,0.88393969,1.7134048,0)" /><pattern
       inkscape:collect="always"
       patternUnits="userSpaceOnUse"
       width="2"
       height="2"
       patternTransform="translate(0,0) scale(10,10)"
       id="Checkerboardwhite"
       inkscape:stockid="Checkerboard white"><rect
         style="fill:white;stroke:none"
         x="0"
         y="0"
         width="1"
         height="1"
         id="rect2813" /><rect
         style="fill:white;stroke:none"
         x="1"
         y="1"
         width="1"
         height="1"
         id="rect2815" /></pattern><rect
       x="290.71234"
       y="41.144833"
       width="61.573731"
       height="13.471043"
       id="rect4265" /><rect
       x="290.71234"
       y="41.144833"
       width="61.573731"
       height="13.471043"
       id="rect4349" /><rect
       x="290.71234"
       y="41.144833"
       width="61.573731"
       height="13.471043"
       id="rect4351" /><rect
       x="290.71234"
       y="41.144833"
       width="61.573731"
       height="13.471043"
       id="rect4379" /><rect
       x="290.71234"
       y="41.144833"
       width="61.573731"
       height="13.471043"
       id="rect4381" /><rect
       x="290.71234"
       y="41.144833"
       width="58.378635"
       height="27.559891"
       id="rect5179" /><rect
       x="290.71234"
       y="41.144833"
       width="68.377763"
       height="27.315684"
       id="rect5322" /><rect
       x="290.71234"
       y="41.144833"
       width="68.377763"
       height="27.315684"
       id="rect5382" /><rect
       x="290.71234"
       y="41.144833"
       width="95.913214"
       height="48.859656"
       id="rect5322-3" /></defs><g
     inkscape:label="Στρώση 1"
     inkscape:groupmode="layer"
     id="layer1"><path
       id="circle1029"
       style="opacity:1;fill:#c03535;fill-opacity:1;stroke:#ffffff;stroke-width:0.517;stroke-linecap:round;stroke-linejoin:round;stroke-dasharray:none;paint-order:fill markers stroke;stop-color:#000000"
       d="M 79.227839,60.631424 50.250471,50.870823 19.598142,49.398055 c -0.02168,0.490479 -0.03146,0.981545 -0.02935,1.472768 0.190786,16.800052 13.964608,30.41919 30.764659,30.419163 13.077109,-0.0035 24.885309,-8.257355 28.894388,-20.658562 z"
       sodipodi:nodetypes="cccccc" /><path
       id="path1033"
       style="opacity:1;fill:#35b2c0;fill-opacity:1;stroke:#ffffff;stroke-width:0.517;stroke-linecap:round;stroke-linejoin:round;stroke-dasharray:none;paint-order:fill markers stroke;stop-color:#000000"
       d="M 50.18327,47.738274 47.805427,17.751203 A 30.071918,30.07186 0 0 0 19.897341,46.282319 Z" /><path
       id="path1056"
       style="opacity:0.763727;fill:url(#pattern3727);fill-opacity:1;stroke:#ffffff;stroke-width:0.517;stroke-linecap:round;stroke-linejoin:round;stroke-dasharray:none;paint-order:fill markers stroke;stop-color:#000000"
       d="M 82.011794,49.993247 H 54.657927 l 25.454271,8.724135 a 26.815104,28.287968 47.733603 0 0 1.899596,-8.724135 z" /><path
       id="path1054"
       style="opacity:1;fill:#355bc0;fill-opacity:1;stroke:#ffffff;stroke-width:0.517;stroke-linecap:round;stroke-linejoin:round;stroke-dasharray:none;paint-order:fill markers stroke;stop-color:#000000"
       d="m 51.827981,17.456998 a 30.419119,30.419119 0 0 0 -2.142785,0.08581 l 2.405296,30.333354 H 82.246719 A 30.419119,30.419119 0 0 0 51.827981,17.456998 Z" /><path
       id="path1024"
       style="fill:none;stroke:#000000;stroke-width:0.383875;stroke-linecap:round;stroke-linejoin:round;stroke-dasharray:none;stroke-opacity:1"
       d="m 60.324957,33.407928 h 9.297159 m -5.238081,-4.16264 v 8.551303 M 60.22254,29.682277 v 7.294358 l 9.549467,2.091055 V 28.543296 Z"
       sodipodi:nodetypes="ccccccccc"
       inkscape:export-filename="windows.png"
       inkscape:export-xdpi="300"
       inkscape:export-ydpi="300" /><g
       id="g3744"
       transform="matrix(0.24076646,0,0,0.24076646,-10.241713,25.32808)"
       style="fill:#000000;stroke-width:0.728943"><path
         d="m 199.81231,27.992179 c 0.0685,0.0021 0.13737,0.0031 0.20584,0.0031 1.5e-4,0 1.5e-4,0 2.9e-4,0 2.43038,0 5.06759,-1.370209 6.71775,-3.490271 1.7033,-2.185304 2.4772,-4.806769 2.12329,-7.192436 -0.0808,-0.54485 -0.56903,-0.93672 -1.11683,-0.897209 -2.39523,0.167743 -5.10683,1.624143 -6.74728,3.623706 -1.78486,2.173634 -2.60262,4.823782 -2.18741,7.089091 0.0896,0.488607 0.50787,0.848418 1.00435,0.864026 z m 2.81339,-6.614826 c 1.01743,-1.240148 2.66435,-2.264605 4.2075,-2.675457 -0.0734,2.098409 -1.21287,3.804245 -1.76081,4.507277 -1.06523,1.368381 -2.70316,2.353047 -4.26571,2.610497 0.0311,-2.086739 1.36233,-3.886078 1.81902,-4.442317 z"
         id="path3740"
         style="fill:#000000;stroke-width:0.102494" /><path
         d="m 218.26394,48.236398 c -0.11164,-0.268558 -0.32944,-0.479046 -0.60166,-0.581688 -4.34291,-1.637502 -5.70299,-6.344158 -4.47226,-9.766657 0.6084,-1.697541 1.80538,-3.07717 3.46144,-3.989705 0.2725,-0.150168 0.46485,-0.413102 0.52545,-0.718358 0.0606,-0.305256 -0.0169,-0.621761 -0.21133,-0.864588 -2.20105,-2.746886 -5.32983,-4.386778 -8.36959,-4.386778 -2.12822,0 -3.56887,0.546397 -4.83996,1.028395 -0.93629,0.355031 -1.74478,0.661694 -2.67166,0.661694 -1.0253,0 -1.96033,-0.334925 -3.04328,-0.722858 -1.26588,-0.453455 -2.70049,-0.967371 -4.4935,-0.967371 -3.45568,0 -6.9579,2.089832 -9.14124,5.455948 -0.80792,1.252099 -1.37443,2.798769 -1.68446,4.598952 -0.87218,5.121164 0.60559,11.223479 3.95357,16.324537 1.8986,2.886648 4.29116,5.841631 7.63872,5.870174 l 0.0683,2.81e-4 c 1.3944,0 2.33252,-0.419007 3.23971,-0.824235 0.95866,-0.428146 1.86416,-0.83267 3.50433,-0.840825 l 0.054,-1.41e-4 c 1.60924,0 2.48606,0.402275 3.41434,0.828171 0.88934,0.40804 1.80904,0.829999 3.19978,0.829999 l 0.0637,-4.21e-4 c 3.28063,-0.02784 5.76515,-3.136225 7.76499,-6.176134 1.22918,-1.882859 1.69726,-2.845169 2.6292,-4.921644 0.11895,-0.265324 0.12303,-0.56819 0.0114,-0.836748 z m -4.40478,4.602467 c -1.59293,2.421523 -3.71665,5.20356 -6.01992,5.223245 l -0.0447,1.4e-4 c -0.93011,0 -1.54372,-0.281634 -2.32043,-0.637931 -0.99071,-0.45458 -2.22369,-1.020239 -4.29383,-1.020239 l -0.0651,1.4e-4 c -2.08365,0.01041 -3.34222,0.572549 -4.35332,1.024318 -0.80159,0.358124 -1.43474,0.640883 -2.37948,0.640883 l -0.0489,-1.4e-4 c -2.3709,-0.02039 -4.39634,-2.640166 -5.89548,-4.919394 -3.06241,-4.665881 -4.42207,-10.203099 -3.63735,-14.810347 0.26125,-1.517002 0.72483,-2.799332 1.37654,-3.809448 1.79737,-2.77107 4.62159,-4.492513 7.37044,-4.492513 1.42659,0 2.57085,0.409867 3.78231,0.843779 1.16169,0.416194 2.36289,0.84645 3.75447,0.84645 1.31341,0 2.38412,-0.406071 3.41955,-0.798785 1.1555,-0.43827 2.35052,-0.891444 4.09221,-0.891444 2.07239,0 4.22479,0.997883 5.93513,2.713984 -1.54695,1.127662 -2.68586,2.637212 -3.32604,4.423616 -1.66928,4.642259 0.41985,9.789294 4.68697,11.99597 -0.63428,1.375693 -1.08492,2.215112 -2.03303,3.667716 z"
         id="path3742"
         style="fill:#000000;stroke-width:0.103835;stroke-dasharray:none" /></g><g
       id="g1549"
       transform="matrix(0.24076646,0,0,0.24076646,-10.449993,25.139536)"
       style="stroke-width:0.728943"><path
         d="m 199.81231,27.992179 c 0.0685,0.0021 0.13737,0.0031 0.20584,0.0031 1.5e-4,0 1.5e-4,0 2.9e-4,0 2.43038,0 5.06759,-1.370209 6.71775,-3.490271 1.7033,-2.185304 2.4772,-4.806769 2.12329,-7.192436 -0.0808,-0.54485 -0.56903,-0.93672 -1.11683,-0.897209 -2.39523,0.167743 -5.10683,1.624143 -6.74728,3.623706 -1.78486,2.173634 -2.60262,4.823782 -2.18741,7.089091 0.0896,0.488607 0.50787,0.848418 1.00435,0.864026 z m 2.81339,-6.614826 c 1.01743,-1.240148 2.66435,-2.264605 4.2075,-2.675457 -0.0734,2.098409 -1.21287,3.804245 -1.76081,4.507277 -1.06523,1.368381 -2.70316,2.353047 -4.26571,2.610497 0.0311,-2.086739 1.36233,-3.886078 1.81902,-4.442317 z"
         id="path1240"
         style="fill:#ffffff;stroke-width:0.102494" /><path
         d="m 218.26394,48.236398 c -0.11164,-0.268558 -0.32944,-0.479046 -0.60166,-0.581688 -4.34291,-1.637502 -5.70299,-6.344158 -4.47226,-9.766657 0.6084,-1.697541 1.80538,-3.07717 3.46144,-3.989705 0.2725,-0.150168 0.46485,-0.413102 0.52545,-0.718358 0.0606,-0.305256 -0.0169,-0.621761 -0.21133,-0.864588 -2.20105,-2.746886 -5.32983,-4.386778 -8.36959,-4.386778 -2.12822,0 -3.56887,0.546397 -4.83996,1.028395 -0.93629,0.355031 -1.74478,0.661694 -2.67166,0.661694 -1.0253,0 -1.96033,-0.334925 -3.04328,-0.722858 -1.26588,-0.453455 -2.70049,-0.967371 -4.4935,-0.967371 -3.45568,0 -6.9579,2.089832 -9.14124,5.455948 -0.80792,1.252099 -1.37443,2.798769 -1.68446,4.598952 -0.87218,5.121164 0.60559,11.223479 3.95357,16.324537 1.8986,2.886648 4.29116,5.841631 7.63872,5.870174 l 0.0683,2.81e-4 c 1.3944,0 2.33252,-0.419007 3.23971,-0.824235 0.95866,-0.428146 1.86416,-0.83267 3.50433,-0.840825 l 0.054,-1.41e-4 c 1.60924,0 2.48606,0.402275 3.41434,0.828171 0.88934,0.40804 1.80904,0.829999 3.19978,0.829999 l 0.0637,-4.21e-4 c 3.28063,-0.02784 5.76515,-3.136225 7.76499,-6.176134 1.22918,-1.882859 1.69726,-2.845169 2.6292,-4.921644 0.11895,-0.265324 0.12303,-0.56819 0.0114,-0.836748 z m -4.40478,4.602467 c -1.59293,2.421523 -3.71665,5.20356 -6.01992,5.223245 l -0.0447,1.4e-4 c -0.93011,0 -1.54372,-0.281634 -2.32043,-0.637931 -0.99071,-0.45458 -2.22369,-1.020239 -4.29383,-1.020239 l -0.0651,1.4e-4 c -2.08365,0.01041 -3.34222,0.572549 -4.35332,1.024318 -0.80159,0.358124 -1.43474,0.640883 -2.37948,0.640883 l -0.0489,-1.4e-4 c -2.3709,-0.02039 -4.39634,-2.640166 -5.89548,-4.919394 -3.06241,-4.665881 -4.42207,-10.203099 -3.63735,-14.810347 0.26125,-1.517002 0.72483,-2.799332 1.37654,-3.809448 1.79737,-2.77107 4.62159,-4.492513 7.37044,-4.492513 1.42659,0 2.57085,0.409867 3.78231,0.843779 1.16169,0.416194 2.36289,0.84645 3.75447,0.84645 1.31341,0 2.38412,-0.406071 3.41955,-0.798785 1.1555,-0.43827 2.35052,-0.891444 4.09221,-0.891444 2.07239,0 4.22479,0.997883 5.93513,2.713984 -1.54695,1.127662 -2.68586,2.637212 -3.32604,4.423616 -1.66928,4.642259 0.41985,9.789294 4.68697,11.99597 -0.63428,1.375693 -1.08492,2.215112 -2.03303,3.667716 z"
         id="path1242"
         style="fill:#ffffff;stroke-width:0.103835;stroke-dasharray:none" /></g><g
       id="g3738"
       transform="matrix(0.67018163,0,0,0.66983997,2.1832579,6.0136563)"
       style="stroke:#000000;stroke-width:0.573125;stroke-dasharray:none"><path
         id="path3732"
         style="fill:none;stroke:#000000;stroke-width:0.573124;stroke-linecap:butt;stroke-linejoin:miter;stroke-dasharray:none;stroke-opacity:1"
         d="m 69.122095,89.010093 v 3.471106 h 4.893242 c 0,0 -0.577967,3.680395 -4.748548,3.680395 -3.044165,0 -4.561368,-1.923737 -5.158858,-3.717602 l -3.091284,2.31407 c 1.677906,3.301911 5.255603,4.914429 7.825879,4.914429 2.566677,-0.04547 4.690406,-0.864877 6.231661,-2.190047 l -2.826184,-2.14974 2.826184,2.14974 c 2.301414,-1.978755 3.303955,-5.085657 2.541963,-8.43101 z" /><path
         id="path3734"
         style="fill:none;stroke:#000000;stroke-width:0.573124;stroke-linecap:butt;stroke-linejoin:miter;stroke-dasharray:none;stroke-opacity:1"
         d="m 61.051787,86.558046 c -0.60768,1.170014 -0.974101,2.545957 -0.974101,4.127397 0,1.565135 0.35399,2.921471 0.938961,4.072619 l 3.091284,-2.31407 c -0.221087,-0.663776 -0.31626,-1.309863 -0.31626,-1.833997 0,-0.486694 0.09243,-1.070567 0.291455,-1.672766 z" /><path
         id="path3736"
         style="fill:none;stroke:#000000;stroke-width:0.573124;stroke-linecap:butt;stroke-linejoin:miter;stroke-dasharray:none;stroke-opacity:1"
         d="m 69.184107,81.58729 c -2.7625,0 -6.413507,1.661388 -8.13232,4.970756 l 3.031339,2.379183 c 0.594551,-1.798973 2.14186,-3.758944 5.033802,-3.758944 1.583821,0 2.727603,0.547987 3.530533,1.324467 l 2.513025,-2.524393 c 0,0 -2.237207,-2.391069 -5.976379,-2.391069 z" /></g><g
       id="g1670"
       transform="matrix(0.67018163,0,0,0.66983997,2.008611,5.5419755)"
       style="stroke-width:0.573125;stroke-dasharray:none"><path
         id="path1553"
         style="fill:none;stroke:#ffffff;stroke-width:0.573124;stroke-linecap:butt;stroke-linejoin:miter;stroke-dasharray:none;stroke-opacity:1"
         d="m 69.122095,89.010093 v 3.471106 h 4.893242 c 0,0 -0.577967,3.680395 -4.748548,3.680395 -3.044165,0 -4.561368,-1.923737 -5.158858,-3.717602 l -3.091284,2.31407 c 1.677906,3.301911 5.255603,4.914429 7.825879,4.914429 2.566677,-0.04547 4.690406,-0.864877 6.231661,-2.190047 l -2.826184,-2.14974 2.826184,2.14974 c 2.301414,-1.978755 3.303955,-5.085657 2.541963,-8.43101 z" /><path
         id="path1661"
         style="fill:none;stroke:#ffffff;stroke-width:0.573124;stroke-linecap:butt;stroke-linejoin:miter;stroke-dasharray:none;stroke-opacity:1"
         d="m 61.051787,86.558046 c -0.60768,1.170014 -0.974101,2.545957 -0.974101,4.127397 0,1.565135 0.35399,2.921471 0.938961,4.072619 l 3.091284,-2.31407 c -0.221087,-0.663776 -0.31626,-1.309863 -0.31626,-1.833997 0,-0.486694 0.09243,-1.070567 0.291455,-1.672766 z" /><path
         id="path1656"
         style="fill:none;stroke:#ffffff;stroke-width:0.573124;stroke-linecap:butt;stroke-linejoin:miter;stroke-dasharray:none;stroke-opacity:1"
         d="m 69.184107,81.58729 c -2.7625,0 -6.413507,1.661388 -8.13232,4.970756 l 3.031339,2.379183 c 0.594551,-1.798973 2.14186,-3.758944 5.033802,-3.758944 1.583821,0 2.727603,0.547987 3.530533,1.324467 l 2.513025,-2.524393 c 0,0 -2.237207,-2.391069 -5.976379,-2.391069 z" /></g><path
       id="path3746"
       style="fill:none;stroke:#ffffff;stroke-width:0.383875;stroke-linecap:round;stroke-linejoin:round;stroke-dasharray:none;stroke-opacity:1"
       d="m 60.084435,33.091126 h 9.297159 m -5.238081,-4.16264 v 8.551303 m -4.161495,-8.114314 v 7.294358 l 9.549467,2.091055 V 28.226494 Z"
       sodipodi:nodetypes="ccccccccc"
       inkscape:export-filename="windows.png"
       inkscape:export-xdpi="300"
       inkscape:export-ydpi="300" /><path
       style="fill:none;stroke:#000000;stroke-width:0.265;stroke-linecap:butt;stroke-linejoin:miter;stroke-dasharray:none;stroke-opacity:1;marker-start:url(#Dot)"
       d="m 68.227226,24.84474 9.299591,-9.299592 H 98.89323"
       id="path3969" /><path
       style="fill:none;stroke:#ffffff;stroke-width:0.265;stroke-linecap:butt;stroke-linejoin:miter;stroke-dasharray:none;stroke-opacity:1;marker-start:url(#Dot)"
       d="m 68.044766,24.672381 9.299591,-9.299592 H 98.71077"
       id="path3748" /><text
       xml:space="preserve"
       transform="matrix(0.26458333,0,0,0.26458333,-2.0862058,0.95611089)"
       id="text4249"
       style="font-size:13.3333px;line-height:0.75;font-family:'Inter V';-inkscape-font-specification:'Inter V';text-align:center;letter-spacing:0px;word-spacing:0px;white-space:pre;shape-inside:url(#rect4251);display:inline;fill:#ffffff"><tspan
         x="302.68043"
         y="50.150768"
         id="tspan6020"><tspan
           style="font-weight:bold"
           id="tspan6018">MSFT</tspan></tspan></text><text
       xml:space="preserve"
       transform="matrix(0.22275685,0,0,0.22275685,22.11245,3.1527618)"
       id="text4263"
       style="font-size:13.3333px;line-height:0.75;font-family:'Inter V';-inkscape-font-specification:'Inter V';text-align:center;letter-spacing:0px;word-spacing:0px;white-space:pre;shape-inside:url(#rect4265);display:inline;fill:#b3b3b3;stroke-width:1.18777"><tspan
         x="298.09946"
         y="50.150768"
         id="tspan6022">26,06%</tspan></text><path
       style="fill:none;stroke:#000000;stroke-width:0.265;stroke-linecap:butt;stroke-linejoin:miter;stroke-dasharray:none;stroke-opacity:1;marker-start:url(#Dot)"
       d="M 31.360689,29.538103 22.061098,20.238511 H 0.69468494"
       id="path4337" /><path
       style="fill:none;stroke:#ffffff;stroke-width:0.265;stroke-linecap:butt;stroke-linejoin:miter;stroke-dasharray:none;stroke-opacity:1;marker-start:url(#Dot)"
       d="M 31.276456,29.365744 21.976865,20.066152 H 0.61045216"
       id="path4339" /><text
       xml:space="preserve"
       transform="matrix(0.26458333,0,0,0.26458333,-79.648027,5.6494735)"
       id="text4343"
       style="font-size:13.3333px;line-height:0.75;font-family:'Inter V';-inkscape-font-specification:'Inter V';text-align:center;letter-spacing:0px;word-spacing:0px;white-space:pre;shape-inside:url(#rect4349);display:inline;fill:#ffffff"><tspan
         x="303.42614"
         y="50.150768"
         id="tspan6026"><tspan
           style="font-weight:bold"
           id="tspan6024">AAPL</tspan></tspan></text><text
       xml:space="preserve"
       transform="matrix(0.22275685,0,0,0.22275685,-55.685441,7.8461244)"
       id="text4347"
       style="font-size:13.3333px;line-height:0.75;font-family:'Inter V';-inkscape-font-specification:'Inter V';text-align:center;letter-spacing:0px;word-spacing:0px;white-space:pre;shape-inside:url(#rect4351);display:inline;fill:#b3b3b3;stroke-width:1.18777"><tspan
         x="297.81537"
         y="50.150768"
         id="tspan6028">23,23%</tspan></text><path
       style="fill:none;stroke:#000000;stroke-width:0.265;stroke-linecap:butt;stroke-linejoin:miter;stroke-dasharray:none;stroke-opacity:1;marker-start:url(#Dot)"
       d="m 40.83987,74.578762 -9.299591,9.299592 H 10.173866"
       id="path4367" /><path
       style="fill:none;stroke:#ffffff;stroke-width:0.265;stroke-linecap:butt;stroke-linejoin:miter;stroke-dasharray:none;stroke-opacity:1;marker-start:url(#Dot)"
       d="m 40.755637,74.350573 -9.299591,9.299592 -22.5781616,0"
       id="path4369"
       sodipodi:nodetypes="ccc" /><text
       xml:space="preserve"
       transform="matrix(0.26458333,0,0,0.26458333,-70.992814,69.524169)"
       id="text4373"
       style="font-size:13.3333px;line-height:0.75;font-family:'Inter V';-inkscape-font-specification:'Inter V';text-align:center;letter-spacing:0px;word-spacing:0px;white-space:pre;shape-inside:url(#rect4379);display:inline;fill:#ffffff"><tspan
         x="300.93091"
         y="50.150768"
         id="tspan6032"><tspan
           style="font-weight:bold"
           id="tspan6030">GOOG</tspan></tspan></text><text
       xml:space="preserve"
       transform="matrix(0.22275685,0,0,0.22275685,-46.20626,71.720819)"
       id="text4377"
       style="font-size:13.3333px;line-height:0.75;font-family:'Inter V';-inkscape-font-specification:'Inter V';text-align:center;letter-spacing:0px;word-spacing:0px;white-space:pre;shape-inside:url(#rect4381);display:inline;fill:#b3b3b3;stroke-width:1.18777"><tspan
         x="297.82484"
         y="50.150768"
         id="tspan6034">45,54%</tspan></text><text
       xml:space="preserve"
       transform="matrix(0.18520813,0,0,0.18520813,-51.637565,13.73023)"
       id="text5177"
       style="font-size:13.3333px;line-height:1;font-family:'Inter V';-inkscape-font-specification:'Inter V';text-align:center;letter-spacing:0px;word-spacing:0px;white-space:pre;shape-inside:url(#rect5179);display:inline;fill:#ffffff;stroke-width:1.42857"
       x="-26.695019"
       y="0"><tspan
         x="290.71289"
         y="51.817431"
         id="tspan6038"><tspan
           style="text-align:start;text-anchor:start"
           id="tspan6036">- macOS
</tspan></tspan><tspan
         x="290.71289"
         y="65.150728"
         id="tspan6042"><tspan
           style="text-align:start;text-anchor:start"
           id="tspan6040">- iOS</tspan></tspan></text><text
       xml:space="preserve"
       transform="matrix(0.18520813,0,0,0.18520813,27.226102,8.8207653)"
       id="text5320"
       style="font-size:13.3333px;line-height:1;font-family:'Inter V';-inkscape-font-specification:'Inter V';text-align:center;letter-spacing:0px;word-spacing:0px;white-space:pre;shape-inside:url(#rect5322);display:inline;fill:#ffffff;stroke-width:1.42857"
       x="-26.695019"
       y="0"><tspan
         x="290.71289"
         y="51.817431"
         id="tspan6046"><tspan
           style="text-align:start;text-anchor:start"
           id="tspan6044">- Windows</tspan></tspan></text><text
       xml:space="preserve"
       transform="matrix(0.18520813,0,0,0.18520813,-43.683951,77.350203)"
       id="text5380"
       style="font-size:13.3333px;line-height:1;font-family:'Inter V';-inkscape-font-specification:'Inter V';text-align:center;letter-spacing:0px;word-spacing:0px;white-space:pre;shape-inside:url(#rect5382);display:inline;fill:#ffffff;stroke-width:1.42857"
       x="-26.695019"
       y="0"><tspan
         x="290.71289"
         y="51.817431"
         id="tspan6050"><tspan
           style="text-align:start;text-anchor:start"
           id="tspan6048">- Android</tspan></tspan></text><text
       xml:space="preserve"
       transform="matrix(0.18520813,0,0,0.18520813,25.218629,45.37505)"
       id="text5320-6"
       style="font-size:13.3333px;line-height:1;font-family:'Inter V';-inkscape-font-specification:'Inter V';text-align:center;letter-spacing:0px;word-spacing:0px;white-space:pre;shape-inside:url(#rect5322-3);display:inline;fill:#ffffff;stroke-width:1.42857"
       x="-26.695019"
       y="0"><tspan
         x="319.91899"
         y="51.817431"
         id="tspan6054"><tspan
   style="font-weight:bold"
   id="tspan6052">Other</tspan>
</tspan><tspan
         x="321.18794"
         y="65.150728"
         id="tspan6056">5,17%</tspan></text></g></svg>
