<?xml version="1.0" encoding="UTF-8" standalone="no"?>
<!-- Created with Inkscape (http://www.inkscape.org/) -->

<svg
   width="210mm"
   height="297mm"
   viewBox="0 0 210 297"
   version="1.1"
   id="svg5"
   inkscape:version="1.2.2 (b0a8486541, 2022-12-01)"
   sodipodi:docname="icons.svg"
   xmlns:inkscape="http://www.inkscape.org/namespaces/inkscape"
   xmlns:sodipodi="http://sodipodi.sourceforge.net/DTD/sodipodi-0.dtd"
   xmlns="http://www.w3.org/2000/svg"
   xmlns:svg="http://www.w3.org/2000/svg">
  <sodipodi:namedview
     id="namedview7"
     pagecolor="#000000"
     bordercolor="#666666"
     borderopacity="1.0"
     inkscape:showpageshadow="2"
     inkscape:pageopacity="0"
     inkscape:pagecheckerboard="0"
     inkscape:deskcolor="#d1d1d1"
     inkscape:document-units="mm"
     showgrid="false"
     showguides="true"
     inkscape:zoom="2.6404882"
     inkscape:cx="391.40489"
     inkscape:cy="108.3133"
     inkscape:window-width="1910"
     inkscape:window-height="1025"
     inkscape:window-x="0"
     inkscape:window-y="26"
     inkscape:window-maximized="1"
     inkscape:current-layer="layer1">
    <sodipodi:guide
       position="15.741055,281.7132"
       orientation="0,-1"
       id="guide871"
       inkscape:locked="false" />
  </sodipodi:namedview>
  <defs
     id="defs2" />
  <g
     inkscape:label="Στρώση 1"
     inkscape:groupmode="layer"
     id="layer1">
    <!--!Font Awesome Free 6.7.2 by @fontawesome - https://fontawesome.com License - https://fontawesome.com/license/free Copyright 2025 Fonticons, Inc.-->
    <!--!Font Awesome Free 6.7.2 by @fontawesome - https://fontawesome.com License - https://fontawesome.com/license/free Copyright 2025 Fonticons, Inc.-->
    <path
       d="m 37.936731,15.286801 h 1.436892 l -3.138366,3.586122 3.691955,4.880545 h -2.890064 l -2.26524,-2.959263 -2.588847,2.959263 h -1.438926 l 3.356138,-3.836459 -3.539311,-4.630208 h 2.963334 l 2.045432,2.704856 z m -0.504743,7.607788 h 0.795785 l -5.136987,-6.793686 h -0.854808 z"
       id="path853"
       style="fill:#ffffff;stroke-width:0.264583"
       inkscape:export-filename="x.png"
       inkscape:export-xdpi="1500"
       inkscape:export-ydpi="1500" />
    <!--!Font Awesome Free 6.7.2 by @fontawesome - https://fontawesome.com License - https://fontawesome.com/license/free Copyright 2025 Fonticons, Inc.-->
    <path
       d="m 50.452383,18.06661 c 0,-1.83667 -1.203661,-2.3752 -1.203661,-2.3752 -1.180987,-0.542309 -4.319576,-0.53664 -5.489225,0 0,0 -1.203662,0.53853 -1.203662,2.3752 0,2.186242 -0.124712,4.901567 1.995395,5.462772 0.765279,0.202185 1.422852,0.245645 1.951934,0.215412 C 47.46307,23.691884 48.0016,23.40278 48.0016,23.40278 l -0.03212,-0.697255 c 0,0 -0.685917,0.215412 -1.456865,0.190847 -0.763389,-0.02645 -1.56835,-0.08314 -1.693062,-1.020372 a 1.936818,1.936818 0 0 1 -0.01701,-0.262651 c 1.617479,0.394922 2.998761,0.171952 3.378566,0.126602 1.060054,-0.126602 1.984058,-0.780396 2.101211,-1.377503 0.185179,-0.94101 0.170062,-2.295838 0.170063,-2.295838 z m -1.419073,2.365752 h -0.880543 v -2.157898 c 0,-0.939121 -1.209331,-0.975023 -1.209331,0.130381 v 1.180986 h -0.874875 v -1.180986 c 0,-1.105404 -1.20933,-1.069502 -1.20933,-0.130381 v 2.157898 h -0.884323 c 0,-2.307175 -0.09826,-2.794686 0.347683,-3.306762 0.489401,-0.546088 1.507884,-0.58199 1.961382,0.115264 l 0.219191,0.368468 0.219192,-0.368468 c 0.455388,-0.701033 1.47576,-0.657573 1.961382,-0.115264 0.44783,0.515855 0.347683,1.001477 0.347683,3.306762 z"
       id="path862"
       style="fill:#ffffff;stroke-width:0.264583"
       inkscape:export-filename="mastodon.png"
       inkscape:export-xdpi="1500"
       inkscape:export-ydpi="1500" />
    <!--!Font Awesome Free 6.7.2 by @fontawesome - https://fontawesome.com License - https://fontawesome.com/license/free Copyright 2025 Fonticons, Inc.-->
    <path
       d="m 60.132327,17.30231 c -0.476463,0 -0.875406,-0.330877 -0.981287,-0.775197 v 0 c -0.578561,0.0813 -1.024772,0.580453 -1.024772,1.179812 v 0.0038 c 0.896203,0.03403 1.712997,0.2855 2.361515,0.686334 0.238232,-0.183401 0.536966,-0.293063 0.86028,-0.293063 0.78087,0 1.412372,0.631502 1.412372,1.412371 0,0.563437 -0.328986,1.049353 -0.807339,1.27624 -0.04538,1.64115 -1.834004,2.960875 -4.031027,2.960875 -2.197022,0 -3.981867,-1.317836 -4.029134,-2.957094 -0.480245,-0.224996 -0.813013,-0.712803 -0.813013,-1.280021 0,-0.780869 0.631502,-1.412371 1.412372,-1.412371 0.325205,0 0.623939,0.109661 0.864061,0.294953 0.642847,-0.398943 1.452077,-0.650409 2.338827,-0.688224 v -0.0057 c 0,-0.837591 0.637175,-1.529597 1.452077,-1.616569 0.09265,-0.457556 0.497261,-0.801668 0.985068,-0.801668 0.555873,0 1.007757,0.451883 1.007757,1.007757 0,0.555872 -0.451884,1.007756 -1.007757,1.007756 z m -4.074512,2.206477 c -0.395162,0 -0.735493,0.39327 -0.760072,0.905657 -0.02458,0.512386 0.323314,0.720366 0.718475,0.720366 0.395162,0 0.692006,-0.185291 0.714694,-0.697678 0.02268,-0.512386 -0.277936,-0.928345 -0.674988,-0.928345 z m 4.490472,0.903766 c -0.02269,-0.512386 -0.36302,-0.905657 -0.760072,-0.905657 -0.397053,0 -0.697677,0.415959 -0.674989,0.928346 0.02269,0.512386 0.319533,0.697677 0.714694,0.697677 0.395162,0 0.743055,-0.20798 0.718476,-0.720366 z m -1.136326,1.338634 c 0.02836,-0.06807 -0.01891,-0.145586 -0.09265,-0.15315 -0.434867,-0.04349 -0.905657,-0.06807 -1.395355,-0.06807 -0.489698,0 -0.960488,0.02458 -1.395355,0.06807 -0.07373,0.0076 -0.121007,0.08508 -0.09265,0.15315 0.243904,0.582343 0.818684,0.990739 1.488001,0.990739 0.669317,0 1.244097,-0.408396 1.488001,-0.990739 z"
       id="path873"
       style="fill:#ffffff;stroke-width:0.264583"
       inkscape:export-filename="reddit.png"
       inkscape:export-xdpi="1500"
       inkscape:export-ydpi="1500" />
    <!--!Font Awesome Free 6.7.2 by @fontawesome - https://fontawesome.com License - https://fontawesome.com/license/free Copyright 2025 Fonticons, Inc.-->
    <path
       d="m 67.283228,23.753016 h -1.7557 v -5.652634 h 1.7557 z m -0.878795,-6.423705 c -0.561294,0 -1.016756,-0.464911 -1.016756,-1.026205 a 1.0167561,1.0167561 0 0 1 2.033512,0 c 0,0.561294 -0.455462,1.026205 -1.016756,1.026205 z m 7.448021,6.423705 h -1.75192 V 21.00135 c 0,-0.655789 -0.01323,-1.496786 -0.912812,-1.496786 -0.912813,0 -1.052664,0.712486 -1.052664,1.449539 v 2.798913 h -1.753809 v -5.652634 h 1.683884 v 0.771072 h 0.02456 c 0.234345,-0.444122 0.806979,-0.912813 1.661206,-0.912813 1.776487,0 2.103437,1.169837 2.103437,2.689301 v 3.105074 z"
       id="path882"
       style="fill:#ffffff;stroke-width:0.264583"
       inkscape:export-filename="linkedin.png"
       inkscape:export-xdpi="1500"
       inkscape:export-ydpi="1500" />
    <!--!Font Awesome Free 6.7.2 by @fontawesome - https://fontawesome.com License - https://fontawesome.com/license/free Copyright 2025 Fonticons, Inc.-->
    <path
       d="m 84.79169,18.258768 c 0.155177,-0.490031 -0.273601,-0.95556 -0.763632,-0.851429 -0.449195,0.09801 -0.588037,-0.573744 -0.144968,-0.669709 1.02294,-0.222556 1.884579,0.757506 1.561974,1.731444 -0.138841,0.43286 -0.792216,0.220513 -0.653374,-0.210306 z m -3.924333,5.494474 c -2.17043,0 -4.385779,-1.049483 -4.385779,-2.782967 0,-0.904517 0.571703,-1.947875 1.557891,-2.934062 2.035671,-2.035672 4.14893,-2.060173 3.544559,-0.116383 -0.08167,0.267475 0.251141,0.116383 0.251141,0.122508 1.623228,-0.686044 2.868724,-0.343022 2.327648,1.049484 -0.07555,0.191928 0.02246,0.222555 0.169469,0.267474 2.770718,0.863681 0.710545,4.393946 -3.464929,4.393946 z m 2.934062,-2.987148 c -0.110257,-1.13728 -1.60281,-1.919288 -3.336296,-1.749819 -1.731443,0.175594 -3.038193,1.231203 -2.927936,2.368484 0.110257,1.137281 1.60281,1.919289 3.336296,1.74982 1.731443,-0.175595 3.038193,-1.231204 2.927936,-2.368485 z m -0.216431,-5.416886 c -0.528825,0.114341 -0.343022,0.892266 0.169469,0.782009 1.476219,-0.310354 2.752342,1.078068 2.280687,2.531827 -0.151093,0.494115 0.594163,0.755465 0.763632,0.245016 0.651334,-2.037714 -1.12503,-3.99988 -3.213788,-3.558852 z m -1.60281,6.349988 c -0.349147,0.792216 -1.36392,1.225078 -2.2276,0.945351 -0.833053,-0.267475 -1.184242,-1.090319 -0.822844,-1.831491 0.361398,-0.722796 1.288374,-1.131156 2.111218,-0.920851 0.857554,0.220515 1.288373,1.024982 0.939226,1.806991 z m -1.76207,-0.612539 c -0.263392,-0.110258 -0.612539,0.0061 -0.775883,0.263392 -0.169469,0.263391 -0.0878,0.571702 0.175595,0.69421 0.267474,0.122508 0.628873,0.0061 0.798342,-0.263391 0.163344,-0.267476 0.07555,-0.577829 -0.198054,-0.694211 z m 0.665625,-0.273601 c -0.104131,-0.03471 -0.232765,0.01225 -0.291977,0.110257 -0.05921,0.104132 -0.02858,0.21643 0.07555,0.263392 0.104131,0.04084 0.23889,-0.0061 0.298102,-0.110257 0.05717,-0.106173 0.02246,-0.222556 -0.08167,-0.263392 z"
       id="path891"
       style="fill:#ffffff;stroke-width:0.264583"
       inkscape:export-filename="weibo.png"
       inkscape:export-xdpi="1500"
       inkscape:export-ydpi="1500" />
    <!--!Font Awesome Free 6.7.2 by @fontawesome - https://fontawesome.com License - https://fontawesome.com/license/free Copyright 2025 Fonticons, Inc.-->
    <path
       d="m 95.987889,16.516888 c -0.79186,-0.79375 -1.846414,-1.230312 -2.967113,-1.230312 -2.313214,0 -4.195536,1.882321 -4.195536,4.195535 0,0.738944 0.192768,1.460878 0.559405,2.097768 l -0.595312,2.173363 2.224389,-0.583974 c 0.612322,0.33451 1.302128,0.510268 2.005164,0.510268 h 0.0019 c 2.311325,0 4.235223,-1.882321 4.235223,-4.195535 0,-1.120699 -0.47625,-2.173363 -1.26811,-2.967113 z m -2.967113,6.455833 c -0.62744,0 -1.241652,-0.168199 -1.776488,-0.485699 l -0.126622,-0.0756 -1.319137,0.345849 0.351518,-1.287009 -0.08316,-0.132292 c -0.349628,-0.555625 -0.532947,-1.196294 -0.532947,-1.855863 0,-1.922008 1.564822,-3.48683 3.488721,-3.48683 0.931711,0 1.806726,0.362857 2.464405,1.022426 0.657678,0.659568 1.062113,1.534583 1.060223,2.466294 0,1.923899 -1.604509,3.48872 -3.526518,3.48872 z m 1.91256,-2.611815 c -0.103944,-0.05292 -0.619881,-0.306161 -0.716265,-0.340179 -0.09638,-0.03591 -0.16631,-0.05292 -0.236235,0.05292 -0.06993,0.105833 -0.270253,0.340179 -0.33262,0.411994 -0.06048,0.06993 -0.122842,0.07937 -0.226785,0.02646 -0.616101,-0.30805 -1.020536,-0.549955 -1.42686,-1.247321 -0.107724,-0.185208 0.107723,-0.171979 0.30805,-0.572634 0.03402,-0.06992 0.01701,-0.130402 -0.0094,-0.183318 -0.02646,-0.05292 -0.236235,-0.568854 -0.32317,-0.778631 -0.08504,-0.204107 -0.171979,-0.175759 -0.236235,-0.179539 -0.06048,-0.0038 -0.130402,-0.0038 -0.200327,-0.0038 -0.06993,0 -0.183319,0.02646 -0.279703,0.130402 -0.09638,0.105833 -0.366637,0.359077 -0.366637,0.875015 0,0.515937 0.376087,1.014866 0.427114,1.084791 0.05292,0.06993 0.738943,1.128259 1.791607,1.583721 0.665238,0.287261 0.926041,0.31183 1.25866,0.262693 0.202218,-0.03024 0.619881,-0.253244 0.706816,-0.498928 0.08693,-0.245685 0.08693,-0.455462 0.06048,-0.498929 -0.02457,-0.04725 -0.09449,-0.07371 -0.198437,-0.124732 z"
       id="path900"
       style="fill:#f9f9f9;stroke-width:0.264583"
       inkscape:export-filename="whatsapp.png"
       inkscape:export-xdpi="1500"
       inkscape:export-ydpi="1500" />
    <!--!Font Awesome Free 6.7.2 by @fontawesome - https://fontawesome.com License - https://fontawesome.com/license/free Copyright 2025 Fonticons, Inc.-->
    <path
       d="m 102.57047,15.286574 c -1.74047,0 -3.46058,1.160311 -3.46058,3.038182 0,1.194238 0.671759,1.872782 1.07889,1.872782 0.16794,0 0.26463,-0.468195 0.26463,-0.600511 0,-0.157762 -0.40204,-0.493641 -0.40204,-1.150133 0,-1.363874 1.03817,-2.3308 2.38169,-2.3308 1.15522,0 2.01019,0.656492 2.01019,1.862605 0,0.900767 -0.36133,2.590342 -1.53181,2.590342 -0.4224,0 -0.78372,-0.305345 -0.78372,-0.743006 0,-0.641224 0.44784,-1.262092 0.44784,-1.923673 0,-1.122991 -1.59289,-0.919427 -1.59289,0.437661 0,0.284989 0.0356,0.600512 0.16285,0.860055 -0.23409,1.007638 -0.71247,2.508918 -0.71247,3.54709 0,0.320613 0.0458,0.636136 0.0763,0.956748 0.0577,0.06446 0.0288,0.05768 0.11705,0.02545 0.85497,-1.170488 0.82443,-1.399497 1.2112,-2.931311 0.20865,0.396948 0.7481,0.61069 1.17558,0.61069 1.80153,0 2.6107,-1.755733 2.6107,-3.338438 0,-1.684486 -1.45548,-2.783728 -3.05345,-2.783728 z"
       id="path909"
       style="fill:#ffffff;stroke-width:0.264583"
       inkscape:export-filename="pinterest.png"
       inkscape:export-xdpi="1500"
       inkscape:export-ydpi="1500" />
    <!--!Font Awesome Free 6.7.2 by @fontawesome - https://fontawesome.com License - https://fontawesome.com/license/free Copyright 2025 Fonticons, Inc.-->
    <path
       d="m 108.88887,16.344909 c -0.19403,0 -0.35277,0.158749 -0.35277,0.352778 v 0.487273 l 3.80338,3.122083 c 0.45641,0.374827 1.11125,0.374827 1.56766,0 l 3.80117,-3.122083 v -0.487273 c 0,-0.194029 -0.15875,-0.352778 -0.35278,-0.352778 z m -0.35277,2.20927 v 3.787951 c 0,0.194028 0.15874,0.352778 0.35277,0.352778 h 8.46666 c 0.19403,0 0.35278,-0.15875 0.35278,-0.352778 v -3.787951 l -3.1309,2.570868 c -0.84666,0.694532 -2.06595,0.694532 -2.91041,0 z m -1.05834,-1.856492 c 0,-0.778317 0.6328,-1.411112 1.41111,-1.411112 h 8.46666 c 0.77832,0 1.41112,0.632795 1.41112,1.411112 v 5.644443 c 0,0.778316 -0.6328,1.411112 -1.41112,1.411112 h -8.46666 c -0.77831,0 -1.41111,-0.632796 -1.41111,-1.411112 z"
       id="path918"
       style="fill:#ffffff;stroke-width:0.264582"
       inkscape:export-filename="email.png"
       inkscape:export-xdpi="1500"
       inkscape:export-ydpi="1500" />
    <!--!Font Awesome Free 6.7.2 by @fontawesome - https://fontawesome.com License - https://fontawesome.com/license/free Copyright 2025 Fonticons, Inc.-->
    <path
       d="m 123.64511,21.558408 a 1.097531,1.097531 0 1 0 0,2.195062 1.097531,1.097531 0 1 0 0,-2.195062 z m 0,-3.135801 a 1.0975306,1.0975306 0 1 0 0,2.195061 1.0975306,1.0975306 0 1 0 0,-2.195061 z m 1.09753,-2.038271 a 1.097535,1.097535 0 1 0 -2.19507,0 1.097535,1.097535 0 1 0 2.19507,0 z"
       id="path927"
       style="fill:#ffffff;stroke-width:0.264583"
       inkscape:export-filename="misc.png"
       inkscape:export-xdpi="1500"
       inkscape:export-ydpi="1500" />
    <g
       id="g1091">
      <path
         d="m 24.187401,20.236167 v 3.517305 h 1.93433 v -3.517305 h 1.44241 l 0.30016,-1.617265 h -1.74257 V 18.04674 c 0,-0.854935 0.33851,-1.182357 1.21229,-1.182357 0.27181,0 0.49026,0.0066 0.61699,0.01984 v -1.466784 c -0.23846,-0.06449 -0.82209,-0.130638 -1.15893,-0.130638 -1.78259,0 -2.60468,0.835091 -2.60468,2.635911 v 0.696189 h -1.10056 v 1.617266 z"
         id="path686"
         style="fill:#ffffff;stroke-width:0.264583"
         inkscape:export-filename="facebook.png"
         inkscape:export-xdpi="1500"
         inkscape:export-ydpi="1500" />
    </g>
  </g>
</svg>
